PathFileType	4	(X/Y/Z)	C:\Users\Basilio\Documents\Thesis Gigler\squatting_fais\c3dfiles\041\SLS_pre_front4\markers_experimental.trc
DataRate	CameraRate	NumFrames	NumMarkers	Units	OrigDataRate	OrigDataStartFrame	OrigNumFrames
200.000000	200.000000	4	63	mm	200.000000	863	1381
Frame#	Time	FHD			LBHD			RBHD			C7			T10			CLAV			LSHO			LUUPA			LMUPA			LDUPA			LLEP			LMEP			LRAD			LUL			LRFIN			RSHO			RUPA1			RMUPA			RDUPA			RLEP			RMEP			RRAD			RUL			RUFIN			LASI			RASI			USACR			RSACR			LTHI1			LTHI2			LTHI3			LTHI4			LLFC			LMFC			LTIB1			LTIB2			LTIB3			LTIB4			LLMAL			LMMAL			LHEE			LMT1			LMT2			LMT5			RTHI			RTHI2			RTHI3			RTHI4			RLFC			RMFC			RTIB1			RTIB2			RTIB3			RTIB4			RLMAL			RMMAL			RHEE			RMT1			RMT2			RMT5			LSACR			*61			*62			
		X1	Y1	Z1	X2	Y2	Z2	X3	Y3	Z3	X4	Y4	Z4	X5	Y5	Z5	X6	Y6	Z6	X7	Y7	Z7	X8	Y8	Z8	X9	Y9	Z9	X10	Y10	Z10	X11	Y11	Z11	X12	Y12	Z12	X13	Y13	Z13	X14	Y14	Z14	X15	Y15	Z15	X16	Y16	Z16	X17	Y17	Z17	X18	Y18	Z18	X19	Y19	Z19	X20	Y20	Z20	X21	Y21	Z21	X22	Y22	Z22	X23	Y23	Z23	X24	Y24	Z24	X25	Y25	Z25	X26	Y26	Z26	X27	Y27	Z27	X28	Y28	Z28	X29	Y29	Z29	X30	Y30	Z30	X31	Y31	Z31	X32	Y32	Z32	X33	Y33	Z33	X34	Y34	Z34	X35	Y35	Z35	X36	Y36	Z36	X37	Y37	Z37	X38	Y38	Z38	X39	Y39	Z39	X40	Y40	Z40	X41	Y41	Z41	X42	Y42	Z42	X43	Y43	Z43	X44	Y44	Z44	X45	Y45	Z45	X46	Y46	Z46	X47	Y47	Z47	X48	Y48	Z48	X49	Y49	Z49	X50	Y50	Z50	X51	Y51	Z51	X52	Y52	Z52	X53	Y53	Z53	X54	Y54	Z54	X55	Y55	Z55	X56	Y56	Z56	X57	Y57	Z57	X58	Y58	Z58	X59	Y59	Z59	X60	Y60	Z60	X61	Y61	Z61	X62	Y62	Z62	X63	Y63	Z63	

864	4.315	-196.1669311523438	1615.663696289063	-1169.709106445313	-371.3009643554688	1537.317260742188	-1237.184326171875	-352.1446838378907	1557.346923828125	-1086.376586914063	-414.4072570800782	1425.2255859375	-1148.774780273438	-525.6895751953126	1149.6142578125	-1058.17236328125	-265.0030517578126	1339.394409179688	-1145.672973632813	-351.3318786621094	1406.326293945313	-1282.252563476563	-278.8071289062501	1373.756958007813	-1428.361328125	-233.0222320556641	1391.311645507813	-1423.671264648438	-231.9313507080079	1367.512451171875	-1480.141723632813	-194.0730743408204	1362.59130859375	-1507.592407226563	-144.4330444335938	1301.354125976563	-1473.150024414063	56.21955871582033	1383.274169921875	-1612.762084960938	17.16134262084961	1378.636352539063	-1675.356567382813	109.2940521240235	1425.560913085938	-1649.108520507813	-316.5022888183594	1455.671630859375	-1042.025634765625	-192.534408569336	1474.403442382813	-903.8076171875002	-168.0290985107422	1492.927856445313	-944.4058837890627	-125.7784500122071	1496.344116210938	-902.2176513671877	-80.85674285888673	1501.139892578125	-897.6358032226565	-58.14543533325197	1416.634643554688	-901.356872558594	189.2286987304688	1494.539184570313	-919.0705566406252	177.2622222900391	1531.540161132813	-855.6473388671877	269.2495117187501	1516.19580078125	-921.1791992187502	-395.0896301269532	938.164978027344	-1149.10302734375	-393.9358215332032	943.0418090820315	-924.7737426757815	-566.8354492187501	1025.943237304688	-1037.475952148438	-583.2734985351564	1000.257385253906	-1008.945739746094	-427.686737060547	741.1185913085939	-1211.366821289063	-353.6441040039063	698.6394042968751	-1210.605834960938	-315.3636169433594	726.1853637695314	-1204.023315429688	-345.9688110351563	638.1365966796876	-1197.600952148438	-241.0993957519532	501.965545654297	-1175.32666015625	-227.065902709961	497.7993774414064	-1059.900756835938	-246.8116760253907	319.5541076660157	-1097.496948242188	-307.8747253417969	284.1274719238282	-1154.64599609375	-272.4362487792969	274.2267761230469	-1128.019653320313	-293.5021057128907	205.0433959960938	-1084.445556640625	-379.4542541503907	125.7322463989258	-1114.989013671875	-338.3434753417969	140.8009490966797	-1034.51220703125	-447.418182373047	115.7433013916016	-1065.690795898438	-240.6477813720704	67.54898071289064	-1042.734130859375	-234.9750518798829	58.57858276367189	-1087.9423828125	-285.4842834472657	41.1114730834961	-1138.416259765625	-377.6247558593751	696.8696899414064	-860.232849121094	-313.1113586425782	684.6222534179689	-861.872253417969	-290.0903930664063	708.6099853515626	-866.7775878906252	-279.3060607910157	609.3989868164064	-884.4202880859377	-190.5859375	520.4348754882814	-895.3318481445315	-163.5893249511719	529.9455566406251	-1011.945983886719	-58.20239639282228	412.7063293457032	-910.7167968750002	-75.59922027587892	301.2113342285157	-906.3635253906252	-37.37993240356446	327.9319152832032	-904.2445068359377	10.82712650299072	307.3825073242188	-932.449157714844	44.41756820678712	177.4062042236328	-929.7609863281252	56.80368804931642	219.6328887939454	-1006.108825683594	30.75605201721192	113.5374069213867	-987.7628173828127	192.2215576171876	257.3397216796876	-977.363220214844	188.25830078125	259.1468505859376	-924.7495117187502	171.0603942871094	208.2180480957032	-883.8745117187502	-584.3377685546876	1000.074523925781	-1064.036254882813	-4217.017578125001	853.1981201171877	-3944.663574218751	nan	nan	nan	
865	4.32	-196.6834564208985	1617.667114257813	-1169.773315429688	-371.9708251953126	1539.032958984375	-1237.485717773438	-352.6438293457032	1559.240234375	-1086.545776367188	-414.9031066894532	1426.859375	-1148.85546875	-525.1563720703126	1150.784790039063	-1058.282348632813	-265.3916625976563	1341.158081054688	-1145.891235351563	-351.8002929687501	1407.78125	-1282.659301757813	-279.5387573242188	1374.513671875	-1428.77685546875	-233.7165679931641	1392.03173828125	-1424.2646484375	-232.9010925292969	1368.076782226563	-1480.683227539063	-194.9091033935547	1363.087158203125	-1508.244995117188	-145.3428039550782	1301.625610351563	-1473.796142578125	55.58517074584962	1383.184814453125	-1613.870727539063	16.06471633911133	1378.456176757813	-1676.050659179688	108.4228439331055	1425.10595703125	-1650.089965820313	-316.9258117675782	1457.236206054688	-1041.838623046875	-193.5266723632813	1475.730102539063	-903.1196289062502	-168.5108795166016	1494.097045898438	-943.5642700195315	-126.201042175293	1497.18505859375	-901.2573852539065	-81.83450317382814	1502.127685546875	-896.278503417969	-59.32533264160158	1417.806884765625	-900.185729980469	188.4646301269532	1495.07958984375	-917.536804199219	176.3401489257813	1531.792602539063	-853.8480224609377	268.3984069824219	1516.789794921875	-919.7077636718752	-394.4440307617189	939.2698974609377	-1149.296020507813	-393.1429748535157	944.559997558594	-924.788757324219	-566.1904296875001	1027.260986328125	-1037.320434570313	-582.6461181640626	1001.550048828125	-1008.787353515625	-427.5035095214845	742.0346069335939	-1211.2978515625	-353.5594787597657	699.2748413085939	-1210.449951171875	-315.1831970214844	726.7352905273439	-1204.059936523438	-346.1937866210938	638.7198486328126	-1197.418701171875	-241.5737915039063	502.2500610351564	-1175.2705078125	-227.5044860839844	498.2087402343751	-1060.020874023438	-247.2157897949219	319.6820678710938	-1097.579711914063	-308.3067932128907	284.3949584960938	-1154.5751953125	-272.6169433593751	274.3921203613282	-1128.104125976563	-293.5898437500001	205.2996063232422	-1084.598876953125	-379.5661926269532	125.8069229125977	-1114.97998046875	-338.3706359863282	140.7892456054688	-1034.573486328125	-447.4177246093751	115.7198181152344	-1065.710205078125	-240.6671295166016	67.59410858154298	-1042.765747070313	-234.9630737304688	58.58893966674806	-1087.971069335938	-285.0219726562501	40.77867889404298	-1138.288330078125	-377.1964721679688	698.3063354492189	-860.0396118164065	-312.3266906738282	685.5644531250001	-861.820007324219	-289.4413757324219	709.6967163085939	-866.9153442382815	-278.8849792480469	610.5088500976564	-884.3037719726565	-190.5821380615235	521.0126953125001	-895.0316162109377	-163.4529571533203	530.4539184570314	-1011.826782226563	-58.62665939331056	413.4347534179689	-910.5430297851565	-76.23328399658205	301.5348815917969	-905.9591064453127	-37.75181579589844	328.2676391601563	-904.015808105469	10.34489059448242	307.5562438964844	-932.2913818359377	43.29006958007813	177.5704956054688	-929.341247558594	55.91918945312501	219.6725311279297	-1005.796325683594	30.27877616882325	112.7588119506836	-987.984313964844	191.6786651611328	257.0840454101563	-977.3713989257815	187.6967468261719	258.7359313964844	-924.7322387695315	170.5335388183594	207.7597961425782	-883.6629638671877	-583.5701293945314	1001.269653320313	-1063.95654296875	-4216.867675781251	853.037780761719	-3944.693115234376	nan	nan	nan	
866	4.325	-196.8050842285157	1619.226684570313	-1169.8154296875	-372.3897705078126	1541.100708007813	-1237.685180664063	-352.9948120117188	1561.101440429688	-1086.752685546875	-415.5018310546876	1428.83447265625	-1149.039916992188	-524.7680053710939	1152.068603515625	-1058.330932617188	-265.6298217773438	1343.06396484375	-1146.098388671875	-352.2065429687501	1409.30517578125	-1283.031372070313	-280.2869873046876	1375.31103515625	-1429.268676757813	-234.4585723876954	1392.769287109375	-1424.93359375	-233.4743041992188	1368.556762695313	-1481.1787109375	-196.1163787841797	1363.645263671875	-1508.964721679688	-146.5588684082032	1302.066528320313	-1474.515258789063	54.1208839416504	1382.988159179688	-1614.359619140625	15.40163135528565	1378.0380859375	-1676.9248046875	107.4578628540039	1424.787475585938	-1650.742797851563	-317.3571166992188	1458.8564453125	-1041.646850585938	-194.1366271972657	1476.828979492188	-902.364929199219	-169.7519836425782	1495.23583984375	-942.5635986328127	-127.3800354003907	1498.44384765625	-900.0610961914065	-82.75415802001955	1502.933227539063	-894.8736572265627	-60.14623641967775	1418.624389648438	-898.8835449218752	187.1438293457032	1495.89794921875	-915.930847167969	175.7410736083985	1532.091064453125	-852.2048950195315	267.4042358398438	1517.283081054688	-918.2249145507815	-393.8418884277345	940.6593017578127	-1149.387451171875	-392.2891235351564	945.9963378906252	-925.117614746094	-565.3772583007814	1028.44091796875	-1037.347290039063	-581.9313964843751	1002.795776367188	-1008.796447753906	-427.3624572753907	742.9315795898439	-1211.24560546875	-353.5060729980469	699.8702392578126	-1210.376586914063	-315.4435424804688	727.4141845703126	-1204.197265625	-346.4472045898438	639.3728637695314	-1197.30126953125	-242.1534576416016	502.5813293457032	-1175.311767578125	-227.8521881103516	498.3634338378907	-1060.033813476563	-247.4367828369141	319.8499145507813	-1097.703979492188	-308.9540405273438	284.8854675292969	-1154.740356445313	-272.8689270019532	274.5199584960938	-1128.253662109375	-293.6285095214844	205.4064331054688	-1084.809692382813	-379.6066894531251	125.7950668334961	-1115.051513671875	-338.3815307617188	140.81494140625	-1034.679321289063	-447.4218139648439	115.7327957153321	-1065.714599609375	-240.6701354980469	67.60617065429689	-1042.797607421875	-235.1185760498047	58.10845947265626	-1088.280883789063	-285.4764099121094	41.05466842651368	-1138.425903320313	-376.6011047363282	699.5796508789064	-859.782165527344	-311.8872375488282	686.7383422851564	-861.314147949219	-288.8016967773438	710.7149047851564	-866.8176269531252	-278.3505249023438	611.2996826171876	-884.1199340820315	-190.5390777587891	521.9904785156251	-894.8113403320315	-163.5759429931641	531.0535888671876	-1011.586364746094	-58.89167785644533	413.8640747070314	-910.3886718750002	-76.8290252685547	302.0568542480469	-905.7657470703127	-38.17382812500001	328.6640930175782	-903.7598266601565	9.930680274963381	307.8948974609376	-932.1418457031252	42.62994003295899	177.5476989746094	-929.2083740234377	54.93367004394533	219.687484741211	-1005.48974609375	28.47383689880372	113.7800903320313	-987.1065673828127	191.2554626464844	256.8356628417969	-977.373229980469	187.0834197998047	258.3528137207032	-924.7275390625002	169.9178314208985	207.5347900390626	-883.757995605469	-582.9541625976564	1002.440246582031	-1063.85009765625	-4216.961914062501	853.062683105469	-3944.700195312501	nan	nan	nan	
867	4.33	-197.7804260253907	1621.338256835938	-1170.025512695313	-372.9701538085938	1542.938354492188	-1237.8681640625	-353.7510681152344	1562.993896484375	-1086.893676757813	-416.081756591797	1430.268432617188	-1149.127563476563	-524.2563476562501	1153.162841796875	-1058.454467773438	-266.0223388671876	1344.842651367188	-1146.3193359375	-352.5997314453126	1410.85498046875	-1283.403198242188	-281.0392150878907	1375.935546875	-1429.791381835938	-235.1517791748047	1393.619262695313	-1425.673706054688	-234.4913787841797	1369.142700195313	-1481.793823242188	-197.3487701416016	1364.197509765625	-1509.802612304688	-147.838623046875	1302.369873046875	-1475.214965820313	53.33798599243165	1382.72900390625	-1615.7265625	14.04508972167969	1378.018920898438	-1677.699584960938	106.6514205932617	1424.332885742188	-1651.669677734375	-317.6253356933594	1460.482666015625	-1041.521240234375	-194.8321990966797	1478.099731445313	-901.743835449219	-170.3787384033203	1496.439331054688	-941.775573730469	-127.9432983398438	1499.419189453125	-899.247497558594	-83.5640106201172	1503.908813476563	-893.673767089844	-61.25963973999025	1419.666748046875	-897.5003051757815	186.3034362792969	1496.364501953125	-914.458435058594	174.7171630859375	1532.315307617188	-850.365905761719	266.6518249511719	1517.735473632813	-916.7271728515627	-393.102508544922	941.771179199219	-1149.454345703125	-391.2217407226564	947.3880004882815	-925.3611450195315	-564.6059570312501	1029.630615234375	-1037.365844726563	-581.0672607421876	1004.135314941406	-1008.675170898438	-427.1927795410157	743.9375000000001	-1211.098754882813	-353.4103698730469	700.4497070312501	-1210.369262695313	-315.3049316406251	727.7907714843751	-1204.113647460938	-346.5872802734376	640.0182495117189	-1197.154296875	-242.8914337158204	502.9458618164064	-1175.330444335938	-228.2534484863282	498.5919494628907	-1060.048950195313	-247.6768951416016	319.9649353027344	-1097.964111328125	-309.3573913574219	285.1819763183594	-1154.73193359375	-272.8762207031251	274.2952575683594	-1128.577758789063	-293.8299865722657	205.5361785888672	-1084.910034179688	-379.6909790039063	125.8360977172852	-1115.071044921875	-338.4180297851563	140.8139953613282	-1034.737915039063	-447.4175415039064	115.7248611450196	-1065.697265625	-240.7089385986329	67.65885162353517	-1042.828857421875	-235.1115264892579	58.17385101318361	-1088.30126953125	-285.0611572265626	40.76292800903321	-1138.323364257813	-375.8761596679688	700.8026733398439	-859.4763793945315	-311.2061462402344	687.6807250976564	-861.499206542969	-288.3183898925782	711.7423706054689	-866.604919433594	-277.9581298828126	612.3542480468751	-883.9495239257815	-190.3265838623047	522.7689819335939	-894.5305786132815	-163.6195220947266	531.6652221679689	-1011.440856933594	-58.94606399536134	414.0867004394532	-910.3381958007815	-77.2664260864258	302.3558044433594	-905.3708496093752	-38.6460304260254	328.9540710449219	-903.5473632812502	9.40146064758301	308.1472167968751	-931.7529907226565	41.61063766479493	177.5503845214844	-928.8747558593752	54.01747512817384	219.7056579589844	-1005.244873046875	27.71739959716798	113.4442901611328	-986.8737792968752	189.9584655761719	256.2738037109376	-977.1198730468752	186.3777618408203	258.0188598632813	-924.6541748046877	169.025131225586	207.1153106689454	-883.9424438476565	-581.8081665039064	1003.367248535156	-1063.8984375	-4216.880371093751	853.1243286132815	-3944.758056640626	nan	nan	nan	
